<?xml version="1.0" standalone="no"?><!DOCTYPE svg PUBLIC "-//W3C//DTD SVG 1.1//EN" "http://www.w3.org/Graphics/SVG/1.1/DTD/svg11.dtd"><svg t="1492842457147" class="icon" style="" viewBox="0 0 1024 1024" version="1.1" xmlns="http://www.w3.org/2000/svg" p-id="3579" xmlns:xlink="http://www.w3.org/1999/xlink" width="24" height="24"><defs><style type="text/css"></style></defs><path d="M949.184 1009.568 417.28 1009.568C382.688 1009.568 354.688 981.568 354.688 947.008L354.688 664.448 417.696 664.352 417.696 909.184C417.696 930.08 434.624 947.008 455.552 947.008L910.912 947.008C931.808 947.008 948.768 930.08 948.768 909.184L947.776 109.056C947.776 88.16 930.848 71.2 909.92 71.2L455.552 71.2C434.624 71.2 417.696 88.16 417.696 109.056L417.696 352.48 354.688 352.48 354.688 70.88C354.688 36.32 382.688 8.32 417.28 8.32L949.184 8.32C983.744 8.32 1011.776 36.32 1011.776 70.88L1011.776 947.008C1011.776 981.568 983.744 1009.568 949.184 1009.568ZM127.04 477.312 667.2 477.312C684.512 477.312 698.496 491.328 698.496 508.608 698.496 525.888 684.512 539.904 667.2 539.904L125.088 539.904 240.224 655.04C252.448 667.264 252.448 687.072 240.224 699.264 234.112 705.376 226.112 708.448 218.112 708.448 210.08 708.448 202.08 705.376 195.968 699.264L11.168 509.6 195.968 319.872C208.192 307.648 228 307.648 240.224 319.872 252.448 332.096 252.448 351.904 240.224 364.128L127.04 477.312Z" p-id="3580" fill="#ffffff"></path></svg>