<?xml version="1.0" standalone="no"?><!DOCTYPE svg PUBLIC "-//W3C//DTD SVG 1.1//EN" "http://www.w3.org/Graphics/SVG/1.1/DTD/svg11.dtd"><svg t="1492907755681" class="icon" style="" viewBox="0 0 1024 1024" version="1.1" xmlns="http://www.w3.org/2000/svg" p-id="4501" xmlns:xlink="http://www.w3.org/1999/xlink" width="48" height="48"><defs><style type="text/css"></style></defs><path d="M512 128c211.2 0 384 172.8 384 384s-172.8 384-384 384-384-172.8-384-384 172.8-384 384-384m0-64C262.4 64 64 262.4 64 512s198.4 448 448 448 448-198.4 448-448-198.4-448-448-448z" fill="#8a8a8a" p-id="4502"></path><path d="M544 512m-32 0a32 32 0 1 0 64 0 32 32 0 1 0-64 0Z" fill="#8a8a8a" p-id="4503"></path><path d="M800 512m-32 0a32 32 0 1 0 64 0 32 32 0 1 0-64 0Z" fill="#8a8a8a" p-id="4504"></path><path d="M544 480h256v64h-256z" fill="#8a8a8a" p-id="4505"></path></svg>