<?xml version="1.0" standalone="no"?><!DOCTYPE svg PUBLIC "-//W3C//DTD SVG 1.1//EN" "http://www.w3.org/Graphics/SVG/1.1/DTD/svg11.dtd"><svg t="1492843089330" class="icon" style="" viewBox="0 0 1024 1024" version="1.1" xmlns="http://www.w3.org/2000/svg" p-id="7805" xmlns:xlink="http://www.w3.org/1999/xlink" width="24" height="24"><defs><style type="text/css"></style></defs><path d="M936.533333 514.133333c-10.666667 8.533333-34.133333 4.266667-34.133333 4.266667s-108.8-19.2-147.2-25.6c-38.4-6.4-64-44.8-64-44.8l-14.933333-27.733333-93.866667 119.466667 128 96c0 0 46.933333 34.133333 19.2 96-21.333333 46.933333-85.333333 164.266667-117.333333 217.6-2.133333 6.4-21.333333 25.6-21.333333 25.6-14.933333 6.4-32 2.133333-42.666667-10.666667-6.4-6.4-8.533333-14.933333-8.533333-23.466667 0 0 4.266667-17.066667 8.533333-23.466667l85.333333-204.8-170.666667-115.2c0 0-8.533333-8.533333-14.933333-12.8l-14.933333-12.8c-32-25.6-38.4-74.666667-10.666667-106.666667l128-164.266667-29.866667-6.4c-44.8-10.666667-76.8 0-76.8 0l-115.2 76.8c0 0-6.4 0-8.533333 0-14.933333 0-27.733333-12.8-27.733333-27.733333 0-12.8 19.2-29.866667 19.2-29.866667s85.333333-70.4 115.2-96c29.866667-25.6 76.8-19.2 76.8-19.2l170.666667 38.4c0 0 8.533333 8.533333 14.933333 12.8l14.933333 12.8c21.333333 17.066667 29.866667 44.8 27.733333 68.266667l19.2 40.533333c21.333333 42.666667 49.066667 57.6 49.066667 57.6l132.266667 38.4c0 0 4.266667 4.266667 6.4 6.4C949.333333 486.4 947.2 505.6 936.533333 514.133333zM750.933333 234.666667c-53.333333 0-96-42.666667-96-96s42.666667-96 96-96 96 42.666667 96 96S804.266667 234.666667 750.933333 234.666667zM366.933333 599.466667c19.2 32 53.333333 53.333333 91.733333 55.466667 0 0-46.933333 104.533333-115.2 104.533333-49.066667 2.133333-155.733333-6.4-209.066667-8.533333-6.4 2.133333-29.866667-8.533333-29.866667-8.533333-10.666667-10.666667-14.933333-25.6-8.533333-40.533333C100.266667 693.333333 106.666667 686.933333 115.2 682.666667c0 0 17.066667-4.266667 25.6-2.133333l183.466667-12.8L366.933333 599.466667z" p-id="7806" fill="#707070"></path></svg>