<?xml version="1.0" standalone="no"?><!DOCTYPE svg PUBLIC "-//W3C//DTD SVG 1.1//EN" "http://www.w3.org/Graphics/SVG/1.1/DTD/svg11.dtd"><svg t="1492843021022" class="icon" style="" viewBox="0 0 1024 1024" version="1.1" xmlns="http://www.w3.org/2000/svg" p-id="5908" xmlns:xlink="http://www.w3.org/1999/xlink" width="24" height="24"><defs><style type="text/css"></style></defs><path d="M516.159228 545.277918c131.027196 0 237.252519-107.560738 237.252519-240.21192 0-132.652206-106.225323-240.212944-237.252519-240.212944-131.024126 0-237.192144 107.560738-237.192144 240.212944C278.968108 437.716156 385.135102 545.277918 516.159228 545.277918zM890.070196 752.676501l-64.641229-210.243375c-7.142677-23.290449-30.607088-33.627888-52.328809-23.059182L556.816207 624.730481c-21.722744 10.570753-56.975643 10.570753-78.695317 0L261.776563 519.373944c-21.723767-10.56973-45.998637-0.521886-54.30379 22.36231l-75.095325 207.978798c-8.305153 22.881127-1.915629 56.162114 14.286378 74.28282l10.511401 11.789511c13.1853 14.753005 37.344536 27.240411 58.893318 79.33693 9.349949 22.534226 33.568537 41.815361 57.670467 41.815361l483.795635 0c24.044626 0 48.37987-19.282159 57.554834-41.875736 21.314445-52.328809 44.721551-65.453734 56.977689-81.019245l3.716648-4.646833C890.825396 810.349015 897.213897 775.96695 890.070196 752.676501z" p-id="5909" fill="#707070"></path></svg>